#!OML:ASF F:\VICON\USERDATA\INSTALL\rory3\rory3.ASF
:FULLY-SPECIFIED
:DEGREES
28
root -0.8019220128871346 17.41925403751458 -17.71457487141586 4.353237197924765 4.130436577838458 -3.153748927447375
lfemur -37.80294137511568 4.946554490321892 -12.042520361899715
ltibia 95.32151915559001
lfoot 2.5714732837688126 -7.294863116325672
ltoes 1.1321568529202537
rfemur -8.81482018965654 5.264841513664912 37.084796863435756
rtibia 35.807727670381226
rfoot -21.717225492854674 -18.236868663105625
rtoes -18.460589573970562
lowerback 1.0 -0.004194608748989248 2.8909317669903274
upperback -1.4512096028631878 0.9950363407571632 2.730282269387279
thorax -11.319325772747078 0.49285839326271635 1.3769651220329109
lowerneck -16.413377962630367 -5.026091135721756 -2.4075638059664115
upperneck 13.851325489972648 -6.376663263609293 1.4301535169722168
head 6.975883477966263 -2.8790659175045663 0.1536520962916732
lclavicle -1.5796864052740406e-14 -2.0443745385329677e-14
lhumerus -56.578042894399864 -14.04204804222766 99.62489131796745
lradius 101.88191865844207
lwrist 29.864851565684987
lhand -31.1589268651658 -0.2668729687463183
lfingers nan
lthumb -4.479992421184697 29.570593164106626
rclavicle -1.4680419661366642e-14 -2.0151645042427784e-14
rhumerus -44.71947866780682 9.331383101303176 -96.4664703941294
rradius 118.70291831375164
rwrist -33.33065878772612
rhand -23.2776970682935 1.0
rfingers nan
rthumb 3.1528592459148976 11.102929792449352
29
root -0.7711095326028675 17.485577566464737 -16.85665212467244 4.345487284575573 4.67291068427111 -2.92376957177214
lfemur -38.721474560754665 4.436160231686549 -12.762902207761707
ltibia 91.96705584713283
lfoot -1.529705074136809 -5.839676357597405
ltoes -13.066009744452273
rfemur -6.433980775120295 5.0932943263880475 37.20633988258416
rtibia 33.164724310780464
rfoot -19.146419659190162 -17.650286450592986
rtoes -23.02921789810709
lowerback 1.0 0.1845392459019572 3.3591092162604292
upperback -1.3685392532046763 1.2362989951493029 2.3699792978778746
thorax -10.749309550395004 0.6055559102740533 0.9787709363544087
lowerneck -18.135388624217345 -5.333692367909757 -2.10487491440094
upperneck 14.764266631455996 -6.8316500391630965 1.2303188832934757
head 7.477030123299997 -3.0902185459775824 -0.0549861034473923
lclavicle 6.435009865943524e-15 -3.004951434951117e-14
lhumerus -57.02083774458363 -14.661130072261393 99.570735963256
lradius 102.69023755988417
lwrist 29.40288731512848
lhand -31.624100241400967 -1.5253353483854666
lfingers nan
lthumb -4.944407169434091 28.279793795857987
rclavicle 7.556769015093389e-15 -2.994167499981794e-14
rhumerus -44.67126202346449 9.449645281670465 -96.53156699022868
rradius 120.90715016787435
rwrist -31.892799060637635
rhand -22.183169859174996 1.0
rfingers nan
rthumb 4.217486956074895 13.833907071120588
30
root -0.6908966975476051 17.61226610927728 -15.625452785350447 5.088203671256973 3.1842648917108 -2.9085681567363117
lfemur -39.27452302163924 5.16121568159367 -13.50928734934077
ltibia 87.99707001831038
lfoot -1.5731832749115813 -4.876495560237302
ltoes -12.897432358617852
rfemur -4.445478788444815 6.125333772868644 36.808367251590106
rtibia 30.453623607602683
rfoot -15.856555785658415 -15.499654261747192
rtoes -25.367654668777043
lowerback 1.0 0.8021767286149416 3.5388685396462307
upperback -0.8967173548233301 1.9236690320619325 2.105756480702424
thorax -7.467683363509371 0.8548812028640361 0.48408562375389275
lowerneck -19.5333382082804 -5.651922619999252 -2.027620165747245
upperneck 15.248216273904886 -7.204876300587779 1.1690952752139454
head 7.848818589104408 -3.259433421431298 -0.1636777591657328
lclavicle -1.48056696517885e-14 2.3683915197594786e-15
lhumerus -56.882850276432656 -14.707285147229511 99.50745866422248
lradius 103.23957586068147
lwrist 28.47530869589556
lhand -32.28993083526323 -3.336709015968439
lfingers nan
lthumb -5.595887402381373 26.452318955477867
rclavicle -1.395987107745934e-14 2.111487348990647e-15
rhumerus -44.33076576873691 9.793486990384935 -96.09487825510348
rradius 122.76485705363729
rwrist -29.520265935784572
rhand -22.346401803585998 1.0
rfingers nan
rthumb 4.047923426822715 16.74873126071023
31
root -0.6613943280243094 17.71094546921829 -15.714856179123917 5.0119796416406395 4.181792260549101 -2.7731513538453356
lfemur -39.80705345096804 4.024062602848432 -14.18246433932702
ltibia 83.76311490937096
lfoot -3.974164982599808 -3.4450749070654236
ltoes -20.438668929824438
rfemur -2.368987081959485 5.473660638156375 36.6338079115926
rtibia 27.814786971417142
rfoot -12.339041247718946 -13.654359198474687
rtoes -26.716090909032737
lowerback 1.0 0.7960351807954995 3.752687574652918
upperback -0.6020487312680711 1.9323980148400794 2.025645313419983
thorax -5.995434621465236 0.8358318594104506 0.34061180902195953
lowerneck -20.090574862606484 -5.834020309726951 -2.003308547311181
upperneck 15.30532682797989 -7.346378644085836 1.0807607897368323
head 7.930829643234865 -3.366343220153217 -0.222225093537483
lclavicle 1.0542843508341026e-14 1.5159085372936346e-14
lhumerus -57.16144710264342 -14.266741377212835 99.42525379197825
lradius 103.59644985176551
lwrist 27.021852268061053
lhand -32.296017601458836 -5.226425518502247
lfingers nan
lthumb -5.615125762586631 24.56869713135519
rclavicle 1.182364048229421e-14 1.525203382966146e-14
rhumerus -44.092816468955725 10.369530270943 -95.62191043566042
rradius 124.37707327615074
rwrist -26.02653120472131
rhand -21.774470463539654 1.0
rfingers nan
rthumb 4.592583228107844 17.000960557840514
32
root -0.6332881447631347 17.797575468063933 -14.656203077501573 4.9121208124048055 5.333047226385465 -2.531191913987778
lfemur -39.821410982872194 2.7244566758144817 -14.797533399013425
ltibia 79.26709377745507
lfoot -2.156648095678538 -4.29924695967304
ltoes -12.172172806647978
rfemur -0.32578633911206367 4.61913569909886 36.41679220497262
rtibia 25.18262009219447
rfoot -8.454437660104242 -12.152510204913515
rtoes -28.020647713610433
lowerback 1.0 0.709346219022885 4.082829225056015
upperback -0.343517261281161 1.8324614059511484 1.8607628456071694
thorax -4.80370044265183 0.7487491841461393 0.196151482454974
lowerneck -20.026076762084 -5.966623566372038 -1.9629785778025717
upperneck 15.319645277852116 -7.42712132204073 1.0221219039145948
head 7.907288580671215 -3.4200744139973196 -0.248535636434716
lclavicle -1.8031481038256082e-14 -2.2559503845597923e-14
lhumerus -57.43271110797633 -13.84625613504341 99.1945648492294
lradius 104.06277046715036
lwrist 26.58336086829344
lhand -31.164380532908066 -4.789073473505193
lfingers nan
lthumb -4.544897851087047 25.036609666676803
rclavicle -1.685054366684683e-14 -2.242628154229262e-14
rhumerus -44.05897335382369 10.901839665721903 -95.48223599579522
rradius 125.76700416909277
rwrist -20.88044542093619
rhand -21.287970075595815 1.0
rfingers nan
rthumb 5.063100043358427 16.466645305155104
33
root -0.6084885780026874 17.87988283434985 -13.866912431687734 4.871522261972553 6.120264366351687 -2.2203351854525315
lfemur -39.894760985490976 1.5660248603371103 -15.550298352858182
ltibia 74.6435899763468
lfoot -2.253555406744375 -3.874748963439049
ltoes -14.733327755631938
rfemur 1.6599484657412837 3.8297558407079917 35.88459149017469
rtibia 22.65687035577556
rfoot -3.810860907552493 -10.307233924152689
rtoes -27.957967782776024
lowerback 1.0 0.6593613617654172 4.1195310595813845
upperback -0.1562928674078261 1.747235908798483 1.6645747442213161
thorax -4.162071517417072 0.6592092379013249 0.20949005348871447
lowerneck -19.049911009782118 -5.994463286848784 -1.9857343016605855
upperneck 15.11214847596973 -7.471105375045642 1.0382423938256702
head 7.683388759056082 -3.450379052227114 -0.2074978938985187
lclavicle 7.960706869542133e-15 4.76645604973905e-15
lhumerus -57.93577763110942 -13.382857687803241 98.9325432678464
lradius 104.57271685858413
lwrist 27.68349042816634
lhand -31.515039191613624 -3.230889482915541
lfingers nan
lthumb -4.895124114104231 26.59583039862203
rclavicle 9.388666865698914e-15 5.287638252697484e-15
rhumerus -44.0756803232638 11.369609981062878 -95.35936065372586
rradius 126.83783905166155
rwrist -14.341723457574801
rhand -21.411447690152443 1.0
rfingers nan
rthumb 4.94865726024555 14.864158824047642
34
root -0.575138699029408 17.941684055298893 -13.446103284773987 5.044034524444828 6.153236854613901 -2.015243322702052
lfemur -39.82725766317893 0.8045759459390704 -16.28009213076841
ltibia 69.77518555994703
lfoot -2.8583566131796148 -3.4577416181384866
ltoes -16.157814704965993
rfemur 3.6646283200128593 3.500688432012427 35.264690624245326
rtibia 20.11686113731964
rfoot 2.050448724751332 -8.381055585332762
rtoes -26.479874832755154
lowerback 1.0 0.6879619786181537 4.043911198735857
upperback 0.13794239715819445 1.7635665938657352 1.4716079007304956
thorax -3.5218042600712947 0.5994461805497565 0.3271128795111484
lowerneck -18.6474788040022 -6.017750338403612 -1.974936233430236
upperneck 15.187190805257396 -7.480816139155231 0.9534779148509358
head 7.658955943115958 -3.482302592166576 -0.23426905704522238
lclavicle 5.469189714511812e-14 4.645383600606229e-15
lhumerus -58.33279711459774 -12.742908449970944 98.53466115656485
lradius 104.78315857467584
lwrist 29.579735822125294
lhand -30.48628074078207 -2.196728664930249
lfingers nan
lthumb -3.905755360485493 27.652665970219534
rclavicle 5.6110792491322504e-14 5.0728683760727635e-15
rhumerus -44.173563382981584 11.821112191830998 -94.945395935613
rradius 128.01598923100377
rwrist -13.14571363313903
rhand -20.37226589565291 1.0
rfingers nan
rthumb 5.946567910880486 17.508608835009454
35
root -0.5436868781400808 18.014380946539326 -12.441633861992784 5.129034971530659 5.7935353733619195 -1.745279111742776
lfemur -39.257229944581326 0.21846838731210638 -17.084246278695286
ltibia 64.50125782581631
lfoot -3.034927803493779 -3.416819553259238
ltoes -15.917344456412625
rfemur 5.757643947911387 3.3933027838819902 34.46143840343938
rtibia 17.6424464468927
rfoot 8.388175486436845 -6.64127931391818
rtoes -26.64817627785313
lowerback 1.0 0.7737182948115058 3.8278436513073304
upperback 0.6075228690196895 1.8459579929340104 1.2224361192957882
thorax -3.3004505273841396 0.568718178445067 0.47179325021822327
lowerneck -19.499147171321287 -6.070922405407012 -1.9023396714875394
upperneck 15.3049826321998 -7.595263451740563 0.8894871330767189
head 7.818704280148114 -3.5369281784165727 -0.2948087961181438
lclavicle -9.717948592518398e-15 -2.1131179764828967e-14
lhumerus -58.506487329468946 -12.00358136061532 98.09284016058746
lradius 104.86408403200723
lwrist 31.557236643485275
lhand -29.686435816631096 -2.081850805492783
lfingers nan
lthumb -3.12685059206078 27.75607426440416
rclavicle -8.15623733171676e-15 -2.0585903739563324e-14
rhumerus -44.0274747310506 12.284919086429044 -94.57962454376248
rradius 128.8647636537366
rwrist -9.639132875199394
rhand -15.893440871388535 1.0
rfingers nan
rthumb 10.281210530228309 28.205161996922023
